# xmcd
#
# Track frame offsets:
#	150
#	16790
#	33137
#	46565
#	60525
#	79605
#
# Disc length: 1265 seconds
#
# Revision: 1
# Processed by: cddbd v1.5.1PL0 Copyright (c) Steve Scherf et al.
# Submitted via: CDex 1.50Beta5
#
DISCID=3104ef06
DTITLE=2BL - イニシャライズ
DYEAR=2003
DGENRE=Rock
TTITLE0=ゴッドセンド
TTITLE1=スター
TTITLE2=バックワーズ
TTITLE3=カージャック
TTITLE4=ヘルアウェイ
TTITLE5=ファー・イースト
EXTD=
EXTT0=
EXTT1=
EXTT2=
EXTT3=
EXTT4=
EXTT5=
PLAYORDER=
